<svg xmlns="http://www.w3.org/2000/svg" width="600" height="400">
  <!-- Base: tan/khaki -->
  <rect width="600" height="400" fill="#c2b878"/>

  <!-- Dark green blotches -->
  <path d="M0,0 Q50,20 90,0 Q130,-10 150,30 Q170,70 140,90 Q110,110 70,100 Q30,90 10,60 Q-10,30 0,0Z" fill="#3d5520"/>
  <path d="M200,0 Q240,10 260,50 Q280,90 250,120 Q220,150 180,130 Q140,110 150,70 Q160,30 200,0Z" fill="#3d5520"/>
  <path d="M420,0 Q470,15 490,50 Q510,85 480,110 Q450,135 410,115 Q370,95 380,55 Q390,15 420,0Z" fill="#3d5520"/>
  <path d="M560,0 Q600,10 600,50 Q600,90 580,110 Q560,130 545,100 Q530,70 545,35 Q555,10 560,0Z" fill="#3d5520"/>
  <path d="M0,180 Q40,160 80,180 Q120,200 110,240 Q100,280 60,290 Q20,300 0,265 Q-20,230 0,180Z" fill="#3d5520"/>
  <path d="M300,160 Q350,140 390,170 Q430,200 420,250 Q410,300 360,310 Q310,320 290,275 Q270,230 300,160Z" fill="#3d5520"/>
  <path d="M530,170 Q580,155 600,190 Q600,230 600,270 Q580,310 550,295 Q520,280 520,235 Q520,190 530,170Z" fill="#3d5520"/>
  <path d="M0,320 Q40,300 70,320 Q100,340 90,375 Q80,400 40,400 Q0,400 0,370 Q0,340 0,320Z" fill="#3d5520"/>
  <path d="M450,340 Q490,320 520,350 Q550,380 530,400 Q500,400 470,400 Q445,400 440,375 Q435,355 450,340Z" fill="#3d5520"/>

  <!-- Brown blotches -->
  <path d="M100,10 Q140,0 160,30 Q180,60 160,85 Q140,110 105,100 Q70,90 75,55 Q80,25 100,10Z" fill="#6b4020"/>
  <path d="M320,20 Q360,5 375,45 Q390,85 360,105 Q330,125 305,95 Q280,65 305,35 Q315,20 320,20Z" fill="#6b4020"/>
  <path d="M480,130 Q520,115 535,150 Q550,185 525,205 Q500,225 475,200 Q450,175 475,145 Q480,133 480,130Z" fill="#6b4020"/>
  <path d="M50,130 Q90,115 110,145 Q130,175 108,200 Q86,225 55,208 Q24,191 35,160 Q45,133 50,130Z" fill="#6b4020"/>
  <path d="M160,270 Q200,255 220,285 Q240,315 215,340 Q190,365 158,348 Q126,331 135,300 Q144,272 160,270Z" fill="#6b4020"/>
  <path d="M390,270 Q430,255 448,285 Q466,315 440,345 Q414,375 383,355 Q352,335 362,300 Q372,270 390,270Z" fill="#6b4020"/>

  <!-- Black blotches -->
  <path d="M60,50 Q90,35 105,60 Q120,85 100,100 Q80,115 58,98 Q36,81 60,50Z" fill="#141409"/>
  <path d="M270,60 Q300,45 315,70 Q330,95 310,112 Q290,129 265,110 Q240,91 270,60Z" fill="#141409"/>
  <path d="M180,160 Q210,145 225,170 Q240,195 218,212 Q196,229 172,210 Q148,191 180,160Z" fill="#141409"/>
  <path d="M440,60 Q470,45 485,72 Q500,99 478,114 Q456,129 433,108 Q410,87 440,60Z" fill="#141409"/>
  <path d="M0,100 Q20,88 32,108 Q44,128 24,140 Q4,152 -10,132 Q-24,112 0,100Z" fill="#141409"/>
  <path d="M560,120 Q590,108 600,130 Q600,155 585,162 Q565,170 550,150 Q535,130 560,120Z" fill="#141409"/>
  <path d="M100,230 Q128,218 140,240 Q152,262 132,276 Q112,290 90,272 Q68,254 100,230Z" fill="#141409"/>
  <path d="M350,230 Q378,218 390,242 Q402,266 380,280 Q358,294 335,275 Q312,256 350,230Z" fill="#141409"/>
  <path d="M240,320 Q268,308 280,330 Q292,352 272,366 Q252,380 230,362 Q208,344 240,320Z" fill="#141409"/>
  <path d="M520,320 Q548,308 560,332 Q572,356 550,368 Q528,380 508,362 Q488,344 520,320Z" fill="#141409"/>
</svg>
